<?xml version="1.0" encoding="UTF-8"?>
<!-- Generated by @neplex/vectorizer (Using visioncortex VTracer) -->
<svg version="1.1" xmlns="http://www.w3.org/2000/svg" width="1024" height="1024">
<path d="M0,0 L5,2 L30,18 L49,30 L68,42 L87,54 L109,68 L128,80 L147,92 L169,106 L188,118 L207,130 L226,142 L248,156 L267,168 L286,180 L308,194 L327,206 L346,218 L363,229 L364,231 L352,252 L345,259 L338,267 L328,277 L321,285 L310,296 L303,304 L293,314 L286,322 L276,332 L269,340 L259,350 L252,358 L242,368 L235,376 L225,386 L218,394 L208,404 L201,412 L191,422 L184,430 L173,441 L166,449 L156,459 L149,467 L139,477 L132,485 L122,495 L115,503 L105,513 L98,521 L88,531 L81,539 L71,549 L64,557 L54,567 L47,575 L36,586 L29,594 L19,604 L12,612 L2,622 L-2,620 L-17,605 L-24,597 L-34,587 L-41,579 L-52,568 L-59,560 L-70,549 L-77,541 L-87,531 L-94,523 L-105,512 L-112,504 L-122,494 L-129,486 L-140,475 L-147,467 L-157,457 L-164,449 L-175,438 L-182,430 L-193,419 L-200,411 L-210,401 L-217,393 L-228,382 L-235,374 L-245,364 L-252,356 L-263,345 L-270,337 L-280,327 L-287,319 L-298,308 L-305,300 L-316,289 L-323,281 L-333,271 L-340,263 L-351,252 L-362,232 L-362,229 L-343,217 L-321,203 L-302,191 L-280,177 L-258,163 L-236,149 L-217,137 L-195,123 L-175,111 L-158,100 L-147,93 L-133,84 L-112,71 L-90,57 L-71,45 L-52,33 L-33,21 L-9,6 Z M-5,213 L-15,217 L-22,225 L-23,227 L-24,242 L-24,258 L-18,266 L-7,271 L-3,272 L4,272 L14,269 L20,265 L25,259 L25,229 L21,221 L16,217 L6,213 Z " fill="#407A46" transform="translate(511,271)"/>
<path d="M0,0 L2,0 L9,8 L20,19 L27,27 L41,41 L48,49 L63,64 L70,72 L84,86 L91,94 L106,109 L113,117 L127,131 L134,139 L148,153 L155,161 L170,176 L177,184 L191,198 L198,206 L212,220 L219,228 L234,243 L241,251 L255,265 L262,273 L276,287 L283,295 L298,310 L305,318 L319,332 L326,340 L340,354 L347,362 L361,376 L365,374 L382,357 L389,349 L403,335 L410,327 L415,322 L423,314 L430,306 L443,293 L450,285 L464,271 L471,263 L475,258 L483,251 L494,239 L505,228 L512,220 L526,206 L533,198 L548,183 L555,175 L560,170 L567,163 L574,155 L579,150 L594,134 L606,121 L619,108 L626,100 L632,93 L640,86 L652,73 L657,68 L666,59 L673,51 L678,45 L686,38 L698,25 L701,21 L703,21 L703,19 L711,12 L720,2 L723,2 L713,20 L706,27 L699,35 L689,45 L682,53 L671,64 L664,72 L654,82 L647,90 L637,100 L630,108 L620,118 L613,126 L603,136 L596,144 L586,154 L579,162 L569,172 L562,180 L552,190 L545,198 L534,209 L527,217 L517,227 L510,235 L500,245 L493,253 L483,263 L476,271 L466,281 L459,289 L449,299 L442,307 L432,317 L425,325 L415,335 L408,343 L397,354 L390,362 L380,372 L373,380 L363,390 L359,388 L344,373 L337,365 L327,355 L320,347 L309,336 L302,328 L291,317 L284,309 L274,299 L267,291 L256,280 L249,272 L239,262 L232,254 L221,243 L214,235 L204,225 L197,217 L186,206 L179,198 L168,187 L161,179 L151,169 L144,161 L133,150 L126,142 L116,132 L109,124 L98,113 L91,105 L81,95 L74,87 L63,76 L56,68 L45,57 L38,49 L28,39 L21,31 L10,20 L0,1 Z " fill="#244A34" transform="translate(150,503)"/>
<path d="M0,0 L2,0 L9,8 L20,19 L27,27 L41,41 L48,49 L63,64 L70,72 L84,86 L91,94 L106,109 L113,117 L127,131 L134,139 L148,153 L155,161 L170,176 L177,184 L191,198 L198,206 L212,220 L219,228 L234,243 L241,251 L255,265 L262,273 L276,287 L283,295 L298,310 L305,318 L319,332 L326,340 L340,354 L347,362 L361,376 L362,378 L363,390 L359,388 L344,373 L337,365 L327,355 L320,347 L309,336 L302,328 L291,317 L284,309 L274,299 L267,291 L256,280 L249,272 L239,262 L232,254 L221,243 L214,235 L204,225 L197,217 L186,206 L179,198 L168,187 L161,179 L151,169 L144,161 L133,150 L126,142 L116,132 L109,124 L98,113 L91,105 L81,95 L74,87 L63,76 L56,68 L45,57 L38,49 L28,39 L21,31 L10,20 L0,1 Z " fill="#1C3C2A" transform="translate(150,503)"/>
<path d="M0,0 L20,0 L20,2 L24,3 L24,5 L28,7 L31,11 L33,15 L34,29 L34,64 L32,67 L31,38 L27,30 L19,25 L13,23 L2,23 L-8,27 L-14,34 L-15,36 L-17,65 L-18,65 L-18,16 L-14,8 L-8,3 Z " fill="#264F37" transform="translate(504,462)"/>
<path d="M0,0 L9,0 L9,2 L13,3 L13,5 L17,7 L20,11 L22,15 L23,29 L23,64 L21,67 L20,38 L16,30 L8,25 L2,23 L-6,22 L-6,21 L-1,21 L-1,1 Z " fill="#244B34" transform="translate(515,462)"/>
<path d="M0,0 L3,1 L6,7 L7,21 L7,56 L5,59 L4,30 L0,22 L-4,18 L-2,18 L-2,10 L-1,10 Z " fill="#142E1E" transform="translate(531,470)"/>
<path d="M0,0 L1,0 L1,9 L0,17 L3,19 L-1,25 L-3,54 L-4,54 L-4,5 Z " fill="#1D3F2B" transform="translate(490,473)"/>
<path d="M0,0 L5,2 L6,4 L5,23 L-3,21 L-1,20 L-1,10 Z " fill="#1D402C" transform="translate(526,466)"/>
<path d="M0,0 L7,1 L5,2 L5,12 L4,22 L0,22 Z " fill="#224731" transform="translate(521,464)"/>
<path d="M0,0 L3,1 L6,8 L4,9 L2,21 L-2,20 L-4,18 L-2,18 L-2,10 L-1,10 Z " fill="#183725" transform="translate(531,470)"/>
</svg>
