<?xml version="1.0" encoding="UTF-8"?>
<!-- Generated by @neplex/vectorizer (Using visioncortex VTracer) -->
<svg version="1.1" xmlns="http://www.w3.org/2000/svg" width="1024" height="1024">
<path d="M0,0 L5,1 L49,30 L60,38 L102,66 L145,95 L157,103 L200,132 L224,148 L264,175 L307,204 L319,212 L362,241 L384,256 L381,266 L374,282 L362,293 L351,302 L336,315 L323,326 L310,337 L296,349 L285,358 L270,371 L257,382 L244,393 L230,405 L219,414 L204,427 L193,436 L178,449 L165,460 L151,472 L140,481 L125,494 L114,503 L99,516 L86,527 L72,539 L61,548 L46,561 L35,570 L20,583 L7,594 L-7,606 L-18,615 L-33,628 L-44,637 L-52,644 L-59,638 L-68,627 L-79,615 L-88,604 L-98,593 L-107,582 L-118,570 L-127,559 L-137,548 L-146,537 L-157,525 L-166,514 L-176,503 L-185,492 L-195,481 L-204,470 L-215,458 L-224,447 L-234,436 L-243,425 L-254,413 L-263,402 L-273,391 L-282,380 L-293,368 L-302,357 L-312,346 L-321,335 L-332,323 L-341,312 L-351,301 L-360,290 L-370,279 L-379,268 L-390,256 L-399,245 L-403,237 L-410,219 L-409,216 L-378,200 L-356,188 L-325,172 L-303,160 L-274,145 L-252,133 L-221,117 L-199,105 L-170,90 L-148,78 L-117,62 L-95,50 L-64,34 L-42,22 L-13,7 Z M-51,241 L-61,244 L-68,249 L-63,253 L-58,255 L0,259 L15,259 L25,256 L29,253 L29,251 L21,246 L8,244 L-38,241 Z " fill="#407A46" transform="translate(531,262)"/>
<path d="M0,0 L4,2 L16,16 L26,27 L35,38 L48,52 L57,63 L69,76 L78,87 L90,100 L99,111 L112,125 L121,136 L133,149 L142,160 L154,173 L163,184 L176,198 L185,209 L197,222 L206,233 L218,246 L227,257 L240,271 L249,282 L261,295 L270,306 L282,319 L291,330 L303,343 L310,351 L322,365 L332,376 L341,387 L353,400 L354,402 L358,400 L371,389 L382,380 L396,368 L407,359 L420,348 L431,339 L445,327 L456,318 L469,307 L480,298 L494,286 L505,277 L518,266 L531,255 L542,246 L555,235 L566,226 L580,214 L591,205 L604,194 L615,185 L629,173 L640,164 L653,153 L664,144 L678,132 L689,123 L702,112 L715,101 L726,92 L739,81 L750,72 L764,60 L775,51 L788,40 L792,38 L791,43 L783,62 L771,73 L760,82 L745,95 L732,106 L719,117 L705,129 L694,138 L679,151 L666,162 L653,173 L639,185 L628,194 L613,207 L602,216 L587,229 L574,240 L560,252 L549,261 L534,274 L523,283 L508,296 L495,307 L481,319 L470,328 L455,341 L444,350 L429,363 L416,374 L402,386 L391,395 L376,408 L365,417 L357,424 L350,418 L341,407 L330,395 L321,384 L311,373 L302,362 L291,350 L282,339 L272,328 L263,317 L252,305 L243,294 L233,283 L224,272 L214,261 L205,250 L194,238 L185,227 L175,216 L166,205 L155,193 L146,182 L136,171 L127,160 L116,148 L107,137 L97,126 L88,115 L77,103 L68,92 L58,81 L49,70 L39,59 L30,48 L19,36 L10,25 L6,17 Z " fill="#10291B" transform="translate(122,482)"/>
<path d="M0,0 L4,2 L16,16 L26,27 L35,38 L48,52 L57,63 L69,76 L78,87 L90,100 L99,111 L112,125 L121,136 L133,149 L142,160 L154,173 L163,184 L176,198 L185,209 L197,222 L206,233 L218,246 L227,257 L240,271 L249,282 L261,295 L270,306 L282,319 L291,330 L303,343 L310,351 L322,365 L332,376 L341,387 L353,400 L355,403 L356,408 L356,423 L350,418 L341,407 L330,395 L321,384 L311,373 L302,362 L291,350 L282,339 L272,328 L263,317 L252,305 L243,294 L233,283 L224,272 L214,261 L205,250 L194,238 L185,227 L175,216 L166,205 L155,193 L146,182 L136,171 L127,160 L116,148 L107,137 L97,126 L88,115 L77,103 L68,92 L58,81 L49,70 L39,59 L30,48 L19,36 L10,25 L6,17 Z " fill="#244B35" transform="translate(122,482)"/>
<path d="M0,0 L23,0 L70,3 L78,5 L87,11 L91,16 L92,20 L92,28 L89,34 L85,39 L83,38 L84,36 L80,34 L73,31 L33,28 L17,27 L4,27 L-6,30 L-12,34 L-16,32 L-19,28 L-20,25 L-20,16 L-16,10 L-11,5 L-6,2 Z " fill="#1A3A28" transform="translate(476,477)"/>
<path d="M0,0 L2,0 L3,9 L3,25 L5,26 L-5,29 L-11,33 L-15,31 L-18,27 L-19,24 L-19,15 L-15,9 L-10,4 L-5,1 Z " fill="#11291B" transform="translate(475,478)"/>
<path d="M0,0 L5,1 L14,7 L18,12 L19,16 L19,24 L16,30 L12,35 L10,34 L11,32 L7,30 L-1,26 Z " fill="#254C35" transform="translate(549,481)"/>
<path d="M0,0 L10,0 L10,26 L2,26 Z " fill="#163323" transform="translate(476,477)"/>
<path d="M0,0 L5,1 L8,3 L8,15 L7,29 L0,27 L-1,25 Z " fill="#214832" transform="translate(549,481)"/>
<path d="M0,0 L4,4 L5,8 L5,16 L2,22 L-1,24 L-1,9 Z " fill="#285238" transform="translate(563,489)"/>
</svg>
