<?xml version="1.0" encoding="UTF-8"?>
<!-- Generated by @neplex/vectorizer (Using visioncortex VTracer) -->
<svg version="1.1" xmlns="http://www.w3.org/2000/svg" width="1024" height="1024">
<path d="M0,0 L5,2 L24,14 L50,30 L69,42 L93,57 L117,72 L141,87 L165,102 L186,115 L210,130 L234,145 L258,160 L282,175 L306,190 L330,205 L356,221 L370,230 L362,246 L350,269 L344,277 L330,292 L314,309 L298,326 L282,343 L275,350 L268,358 L259,367 L252,375 L243,384 L236,392 L227,401 L220,409 L211,418 L204,426 L195,435 L188,443 L179,452 L172,460 L163,469 L156,477 L147,486 L140,494 L131,503 L124,511 L115,520 L108,528 L99,537 L92,545 L83,554 L76,562 L67,571 L60,579 L50,589 L43,597 L34,606 L27,614 L18,623 L11,631 L2,640 L-2,638 L-16,624 L-23,616 L-32,607 L-39,599 L-49,589 L-56,581 L-65,572 L-72,564 L-82,554 L-89,546 L-98,537 L-105,529 L-115,519 L-122,511 L-131,502 L-138,494 L-148,484 L-155,476 L-164,467 L-171,459 L-180,450 L-187,442 L-197,432 L-204,424 L-213,415 L-220,407 L-230,397 L-237,389 L-246,380 L-253,372 L-263,362 L-270,354 L-279,345 L-286,337 L-296,327 L-303,319 L-312,310 L-319,302 L-329,292 L-336,284 L-345,275 L-362,243 L-368,232 L-367,229 L-343,214 L-319,199 L-293,183 L-274,171 L-250,156 L-224,140 L-205,128 L-181,113 L-160,100 L-136,85 L-112,70 L-91,57 L-67,42 L-43,27 L-19,12 Z " fill="#417A47" transform="translate(511,259)"/>
<path d="M0,0 L7,0 L14,4 L18,6 L23,5 L39,16 L82,45 L106,61 L122,72 L127,81 L140,90 L147,97 L152,109 L154,125 L157,132 L165,139 L174,145 L172,154 L168,156 L166,160 L158,167 L153,171 L149,170 L134,159 L115,145 L111,141 L121,133 L120,132 L109,141 L107,143 L108,150 L111,166 L114,171 L125,180 L130,184 L130,191 L124,198 L116,205 L109,211 L105,210 L96,203 L82,192 L69,182 L67,179 L75,172 L74,171 L61,182 L58,185 L61,192 L65,208 L71,215 L82,224 L84,228 L82,235 L77,240 L75,240 L73,244 L67,249 L65,249 L63,253 L59,254 L46,243 L35,234 L21,222 L19,220 L27,213 L28,211 L22,215 L8,227 L10,237 L15,252 L21,259 L32,268 L34,270 L34,279 L21,291 L13,298 L9,300 L-1,291 L-9,284 L-20,274 L-31,265 L-29,261 L-26,258 L-27,257 L-38,266 L-47,274 L-52,273 L-64,262 L-72,255 L-84,244 L-92,237 L-91,233 L-86,227 L-84,220 L-84,213 L-86,208 L-90,203 L-97,199 L-102,198 L-110,198 L-119,200 L-126,204 L-131,202 L-142,192 L-150,185 L-162,174 L-166,171 L-165,167 L-148,155 L-143,153 L-141,156 L-146,160 L-153,165 L-155,165 L-155,167 L-159,168 L-154,173 L-147,180 L-139,187 L-129,196 L-125,197 L-116,193 L-104,192 L-97,193 L-83,206 L-78,210 L-77,213 L-77,220 L-80,229 L-84,234 L-83,237 L-75,244 L-64,254 L-56,261 L-50,266 L-46,264 L-35,255 L-28,249 L-30,243 L-39,234 L-46,236 L-61,223 L-75,211 L-85,202 L-96,193 L-107,183 L-118,174 L-130,163 L-141,154 L-149,146 L-146,150 L-146,152 L-152,156 L-156,155 L-168,144 L-179,135 L-186,129 L-188,124 L-188,119 L-172,108 L-165,103 L-161,105 L-156,108 L-145,100 L-138,101 L-129,108 L-122,106 L-122,104 L-126,102 L-136,94 L-137,92 L-137,84 L-115,69 L-109,73 L-104,72 L-94,65 L-87,65 L-78,71 L-76,71 L-89,61 L-90,52 L-70,38 L-65,39 L-60,42 L-46,32 L-44,30 L-44,21 L-33,13 L-26,8 L-21,9 L-16,11 Z " fill="#949494" transform="translate(521,349)"/>
<path d="M0,0 L4,4 L7,10 L20,19 L27,26 L32,38 L34,54 L37,61 L45,68 L54,74 L52,83 L48,85 L46,89 L38,96 L33,100 L29,99 L14,88 L-5,74 L-9,70 L1,62 L0,61 L-11,70 L-13,72 L-12,79 L-9,95 L-6,100 L5,109 L10,113 L10,120 L4,127 L-4,134 L-11,140 L-15,139 L-24,132 L-38,121 L-51,111 L-53,108 L-45,101 L-46,100 L-59,111 L-62,114 L-59,121 L-55,137 L-49,144 L-38,153 L-36,157 L-38,164 L-43,169 L-45,169 L-47,173 L-53,178 L-55,178 L-57,182 L-61,183 L-74,172 L-85,163 L-99,151 L-101,149 L-93,142 L-92,140 L-98,144 L-112,156 L-110,166 L-105,181 L-99,188 L-88,197 L-86,199 L-86,208 L-99,220 L-107,227 L-111,229 L-121,220 L-129,213 L-140,203 L-151,194 L-149,190 L-146,187 L-147,186 L-158,195 L-167,203 L-172,202 L-184,191 L-192,184 L-204,173 L-212,166 L-211,162 L-206,156 L-204,149 L-204,142 L-206,137 L-210,132 L-217,128 L-222,127 L-230,127 L-239,129 L-246,133 L-251,131 L-262,121 L-270,114 L-282,103 L-286,100 L-285,96 L-268,84 L-263,82 L-261,85 L-266,89 L-273,94 L-275,94 L-275,96 L-279,97 L-274,102 L-267,109 L-259,116 L-249,125 L-245,126 L-236,122 L-224,121 L-217,122 L-203,135 L-198,139 L-197,142 L-197,149 L-200,158 L-204,163 L-203,166 L-195,173 L-184,183 L-176,190 L-170,195 L-166,193 L-155,184 L-148,178 L-150,172 L-159,163 L-165,165 L-166,158 L-166,136 L-162,134 L-162,132 L-149,122 L-143,117 L-141,117 L-141,115 L-136,113 L-136,111 L-123,101 L-107,88 L-96,79 L-82,68 L-69,57 L-56,47 L-39,33 L-29,25 L-13,12 L-2,3 L0,3 Z " fill="#868686" transform="translate(641,420)"/>
<path d="M0,0 L4,2 L20,19 L33,32 L40,40 L56,56 L63,64 L79,80 L86,88 L103,105 L110,113 L126,129 L133,137 L149,153 L156,161 L172,177 L179,185 L195,201 L202,209 L218,225 L225,233 L241,249 L248,257 L264,273 L271,281 L287,297 L294,305 L310,321 L317,329 L333,345 L340,353 L356,369 L363,377 L367,381 L371,379 L378,372 L385,364 L401,348 L408,340 L423,325 L430,317 L445,302 L452,294 L468,278 L475,270 L490,255 L497,247 L512,232 L519,224 L535,208 L542,200 L557,185 L564,177 L579,162 L586,154 L602,138 L609,130 L624,115 L631,107 L646,92 L653,84 L669,68 L676,60 L691,45 L698,37 L713,22 L720,14 L733,1 L735,2 L717,36 L711,44 L697,59 L681,76 L665,93 L649,110 L642,117 L635,125 L626,134 L619,142 L610,151 L603,159 L594,168 L587,176 L578,185 L571,193 L562,202 L555,210 L546,219 L539,227 L530,236 L523,244 L514,253 L507,261 L498,270 L491,278 L482,287 L475,295 L466,304 L459,312 L450,321 L443,329 L434,338 L427,346 L417,356 L410,364 L401,373 L394,381 L385,390 L378,398 L369,407 L365,405 L351,391 L344,383 L335,374 L328,366 L318,356 L311,348 L302,339 L295,331 L285,321 L278,313 L269,304 L262,296 L252,286 L245,278 L236,269 L229,261 L219,251 L212,243 L203,234 L196,226 L187,217 L180,209 L170,199 L163,191 L154,182 L147,174 L137,164 L130,156 L121,147 L114,139 L104,129 L97,121 L88,112 L81,104 L71,94 L64,86 L55,77 L48,69 L38,59 L31,51 L22,42 L5,10 Z " fill="#1C3D2B" transform="translate(144,492)"/>
<path d="M0,0 L2,1 L-16,35 L-22,43 L-36,58 L-52,75 L-68,92 L-84,109 L-91,116 L-98,124 L-107,133 L-114,141 L-123,150 L-130,158 L-139,167 L-146,175 L-155,184 L-162,192 L-171,201 L-178,209 L-187,218 L-194,226 L-203,235 L-210,243 L-219,252 L-226,260 L-235,269 L-242,277 L-251,286 L-258,294 L-267,303 L-274,311 L-283,320 L-290,328 L-299,337 L-306,345 L-316,355 L-323,363 L-332,372 L-339,380 L-348,389 L-355,397 L-363,405 L-365,405 L-365,381 L-355,371 L-348,363 L-332,347 L-325,339 L-310,324 L-303,316 L-288,301 L-281,293 L-265,277 L-258,269 L-243,254 L-236,246 L-221,231 L-214,223 L-198,207 L-191,199 L-176,184 L-169,176 L-154,161 L-147,153 L-131,137 L-124,129 L-109,114 L-102,106 L-87,91 L-80,83 L-64,67 L-57,59 L-42,44 L-35,36 L-20,21 L-13,13 Z " fill="#254C35" transform="translate(877,493)"/>
<path d="M0,0 L7,3 L11,6 L11,8 L15,10 L19,11 L23,5 L31,11 L43,22 L54,31 L57,34 L70,32 L82,36 L88,44 L88,49 L85,45 L81,41 L76,39 L61,39 L57,40 L62,45 L77,58 L83,62 L84,58 L88,60 L103,73 L113,81 L123,90 L124,119 L116,113 L101,100 L91,91 L80,82 L69,72 L58,63 L47,53 L36,44 L21,30 L21,31 L23,35 L17,39 L13,38 L1,27 L-10,18 L-17,12 L-19,7 L-18,4 L-9,11 L-5,13 L-2,2 Z " fill="#767676" transform="translate(352,466)"/>
<path d="M0,0 L4,1 L15,10 L23,19 L24,21 L29,19 L39,10 L45,5 L47,5 L48,11 L35,22 L29,27 L31,37 L36,52 L42,59 L53,68 L55,71 L46,80 L38,87 L30,93 L18,82 L12,77 L12,74 L10,74 L3,54 L-4,40 L-12,31 L-23,22 L-23,19 L-10,8 Z " fill="#D8D9D8" transform="translate(500,549)"/>
<path d="M0,0 L5,3 L16,12 L23,21 L29,17 L41,7 L43,7 L44,12 L29,25 L26,28 L29,35 L33,51 L39,58 L50,67 L50,71 L34,86 L30,89 L25,87 L12,76 L8,69 L5,60 L3,52 L-2,41 L-8,33 L-21,22 L-23,19 L-13,10 Z " fill="#D8D9D8" transform="translate(553,506)"/>
<path d="M0,0 L4,1 L15,8 L23,17 L24,19 L28,17 L40,7 L42,7 L42,13 L28,25 L29,32 L32,48 L35,53 L46,62 L51,67 L44,74 L36,81 L31,85 L26,83 L13,73 L9,64 L2,40 L-4,32 L-14,23 L-20,19 L-18,15 L-5,4 Z " fill="#D9D9D9" transform="translate(600,467)"/>
<path d="M0,0 L5,2 L16,10 L23,18 L27,28 L29,44 L32,51 L40,58 L48,63 L47,67 L35,78 L30,82 L25,80 L13,72 L9,67 L4,42 L0,34 L-7,26 L-16,20 L-20,16 L-6,5 Z " fill="#D7D8D7" transform="translate(646,430)"/>
<path d="M0,0 L4,2 L-1,7 L-8,12 L-10,12 L-10,14 L-14,15 L-9,20 L-2,27 L6,34 L16,43 L20,44 L29,40 L41,39 L48,40 L62,53 L67,57 L68,60 L68,67 L65,76 L61,81 L62,84 L70,91 L81,101 L89,108 L95,113 L99,111 L110,102 L116,97 L119,98 L120,102 L105,115 L98,121 L93,120 L81,109 L73,102 L61,91 L53,84 L54,80 L59,74 L61,67 L61,60 L59,55 L55,50 L48,46 L43,45 L35,45 L26,47 L19,51 L14,49 L3,39 L-5,32 L-17,21 L-21,18 L-20,14 L-3,2 Z " fill="#E8EBE8" transform="translate(376,502)"/>
<path d="M0,0 L4,1 L15,10 L23,19 L24,24 L11,36 L1,44 L-3,42 L-12,31 L-23,22 L-23,19 L-10,8 Z " fill="#F9F9F9" transform="translate(500,549)"/>
<path d="M0,0 L5,3 L16,12 L23,21 L21,25 L9,36 L1,43 L-4,38 L-10,31 L-20,23 L-23,19 L-13,10 Z " fill="#F9FAF9" transform="translate(553,506)"/>
<path d="M0,0 L7,4 L16,11 L23,20 L26,28 L30,50 L34,55 L45,62 L50,64 L63,52 L69,47 L67,56 L63,58 L61,62 L53,69 L48,73 L44,72 L29,61 L10,47 L6,43 L16,35 L14,23 L11,19 L11,17 L7,15 L2,11 L0,4 Z " fill="#999A99" transform="translate(626,447)"/>
<path d="M0,0 L10,6 L20,16 L24,23 L30,45 L34,54 L49,65 L53,63 L61,56 L70,48 L71,48 L71,54 L65,61 L57,68 L50,74 L46,73 L37,66 L23,55 L10,45 L8,42 L16,35 L16,29 L13,20 L2,10 Z " fill="#999A99" transform="translate(580,486)"/>
<path d="M0,0 L4,1 L15,8 L23,17 L24,22 L13,32 L4,39 L0,37 L-7,29 L-16,22 L-20,19 L-18,15 L-5,4 Z " fill="#F9F9F9" transform="translate(600,467)"/>
<path d="M0,0 L7,6 L17,14 L24,23 L29,35 L32,47 L36,56 L44,63 L52,69 L56,67 L64,60 L75,50 L76,52 L74,59 L69,64 L67,64 L65,68 L59,73 L57,73 L55,77 L51,78 L38,67 L27,58 L13,46 L11,44 L19,37 L17,29 L14,22 L7,15 L3,12 Z " fill="#999A99" transform="translate(529,525)"/>
<path d="M0,0 L7,1 L16,8 L16,11 L5,18 L-1,23 L-5,29 L-10,27 L-13,25 L-13,23 L-17,21 L-24,18 L-26,22 L-28,30 L-30,31 L-43,21 L-43,19 L-27,8 L-20,3 L-16,5 L-11,8 Z " fill="#EFF0EF" transform="translate(376,449)"/>
<path d="M0,0 L2,0 L7,6 L18,15 L20,18 L11,27 L3,34 L-5,40 L-17,29 L-23,24 L-22,20 L-7,6 Z " fill="#F2F3F2" transform="translate(535,602)"/>
<path d="M0,0 L8,6 L14,11 L23,22 L30,39 L34,49 L34,53 L36,53 L36,56 L40,58 L50,68 L55,71 L68,59 L76,52 L79,50 L79,58 L66,70 L58,77 L54,79 L44,70 L36,63 L25,53 L14,44 L16,40 L19,37 L18,30 L15,22 L4,11 L0,2 Z " fill="#9A9A99" transform="translate(476,570)"/>
<path d="M0,0 L5,2 L16,10 L23,18 L22,22 L8,34 L4,37 L2,37 L-5,28 L-20,17 L-15,12 Z " fill="#F9F9F9" transform="translate(646,430)"/>
<path d="M0,0 L7,0 L16,6 L16,10 L0,21 L-7,25 L-17,17 L-23,17 L-26,26 L-28,30 L-33,29 L-43,21 L-43,19 L-21,4 L-15,8 L-10,7 Z " fill="#EFF0EF" transform="translate(427,414)"/>
<path d="M0,0 L4,2 L15,12 L19,15 L17,19 L2,33 L-2,36 L-7,34 L-20,23 L-22,19 L-12,10 Z " fill="#F2F2F2" transform="translate(585,559)"/>
<path d="M0,0 L5,0 L15,7 L13,11 L-3,22 L-7,24 L-17,17 L-22,16 L-26,20 L-29,29 L-33,31 L-45,22 L-45,20 L-26,7 L-21,8 L-16,11 L-2,1 Z " fill="#EFF0EF" transform="translate(477,380)"/>
<path d="M0,0 L8,6 L19,15 L13,22 L3,31 L-1,34 L-6,32 L-19,22 L-21,18 L-11,9 L-3,2 Z " fill="#F2F2F2" transform="translate(632,518)"/>
<path d="M0,0 L7,0 L14,4 L17,6 L17,8 L-3,22 L-12,17 L-17,15 L-21,16 L-25,22 L-28,29 L-31,31 L-43,23 L-43,20 L-26,8 L-21,9 L-16,11 Z " fill="#EEEFEE" transform="translate(521,349)"/>
<path d="M0,0 L7,3 L11,6 L11,8 L15,10 L19,13 L14,21 L15,25 L23,33 L23,35 L17,39 L13,38 L1,27 L-10,18 L-17,12 L-19,7 L-18,4 L-9,11 L-5,13 L-2,2 Z " fill="#959695" transform="translate(352,466)"/>
<path d="M0,0 L4,2 L11,8 L19,13 L18,17 L6,28 L1,32 L-4,30 L-16,22 L-19,18 L-17,14 L-6,5 Z " fill="#F2F2F2" transform="translate(675,480)"/>
<path d="M0,0 L5,3 L12,10 L13,16 L2,26 L-7,33 L-10,32 L-18,22 L-21,20 L-20,16 L-6,5 Z " fill="#427B48" transform="translate(533,538)"/>
<path d="M0,0 L4,2 L12,9 L13,16 L-2,29 L-6,31 L-14,21 L-18,18 L-17,14 L-6,5 Z " fill="#427B48" transform="translate(582,497)"/>
<path d="M0,0 L2,0 L3,6 L-10,17 L-16,22 L-17,30 L-30,41 L-35,45 L-37,45 L-37,47 L-42,48 L-46,39 L-38,33 L-23,20 L-19,16 L-8,7 Z " fill="#E8E9E8" transform="translate(545,554)"/>
<path d="M0,0 L4,1 L14,9 L9,13 L3,17 L-11,29 L-15,29 L-24,21 L-19,16 L-10,8 Z " fill="#F2F2F2" transform="translate(500,549)"/>
<path d="M0,0 L5,3 L13,9 L8,13 L3,16 L-9,27 L-12,30 L-23,20 L-18,14 L-8,6 Z M5,14 Z " fill="#F2F2F2" transform="translate(553,506)"/>
<path d="M0,0 L5,2 L10,7 L13,11 L12,16 L-2,28 L-5,27 L-13,17 L-16,14 L-5,4 Z " fill="#437B49" transform="translate(628,459)"/>
<path d="M0,0 L2,0 L3,5 L-12,18 L-15,21 L-15,27 L-28,38 L-32,41 L-34,41 L-35,44 L-38,44 L-41,38 L-39,34 L-27,23 L-19,16 L-4,3 Z " fill="#E8E9E8" transform="translate(594,513)"/>
<path d="M0,0 L7,2 L15,8 L15,10 L9,13 L5,14 L2,19 L-7,25 L-11,24 L-23,15 L-24,6 L-15,12 L-11,15 L-8,14 L-4,3 Z " fill="#999999" transform="translate(455,395)"/>
<path d="M0,0 L7,1 L16,7 L16,9 L11,12 L6,12 L3,18 L-8,26 L-16,20 L-24,16 L-24,8 L-13,15 L-10,16 L-7,12 L-4,4 Z " fill="#9A9A9A" transform="translate(501,363)"/>
<path d="M0,0 L4,1 L13,7 L8,12 L-5,23 L-10,26 L-20,19 L-18,15 L-5,4 Z " fill="#F2F2F2" transform="translate(600,467)"/>
<path d="M0,0 L6,0 L16,8 L15,11 L11,13 L7,12 L5,18 L-4,24 L-11,20 L-19,13 L-20,11 L-20,5 L-14,9 L-8,13 L-5,14 L-2,2 Z " fill="#999999" transform="translate(404,430)"/>
<path d="M0,0 L2,0 L2,6 L-12,18 L-12,23 L-19,30 L-27,37 L-33,40 L-36,39 L-38,32 L-32,28 L-17,15 L-12,10 Z " fill="#E8E9E8" transform="translate(640,474)"/>
<path d="M0,0 L5,2 L11,6 L9,10 L-5,22 L-9,25 L-20,17 L-15,12 Z " fill="#F1F2F1" transform="translate(646,430)"/>
<path d="M0,0 L10,0 L15,3 L19,9 L19,16 L12,24 L3,31 L-1,31 L0,27 L13,16 L13,10 L11,6 L8,5 L1,5 L-12,15 L-17,16 L-16,12 L-2,1 Z " fill="#E6E9E6" transform="translate(402,581)"/>
<path d="M0,0 L4,2 L7,4 L7,7 L-4,14 L-10,19 L-14,25 L-19,23 L-22,21 L-22,19 L-24,19 L-24,16 L-9,6 Z " fill="#F1F1F1" transform="translate(385,453)"/>
<path d="M0,0 L4,2 L12,10 L23,19 L34,29 L45,38 L57,49 L68,58 L79,68 L90,77 L101,87 L105,90 L112,88 L112,91 L108,95 L104,93 L92,82 L81,73 L70,63 L59,54 L47,43 L36,34 L24,23 L13,14 L0,1 Z " fill="#444644" transform="translate(370,494)"/>
<path d="M0,0 L2,0 L4,8 L-12,23 L-19,29 L-22,29 L-24,21 L-12,10 L-1,1 Z " fill="#E2E2E2" transform="translate(532,594)"/>
<path d="M0,0 L4,1 L8,4 L7,7 L-9,18 L-16,22 L-22,17 L-17,12 Z " fill="#F1F1F1" transform="translate(436,417)"/>
<path d="M0,0 L7,1 L10,4 L-10,18 L-15,20 L-16,22 L-21,19 L-23,18 L-22,15 L-14,10 L-12,8 L-1,1 Z " fill="#EAEAEA" transform="translate(376,449)"/>
<path d="M0,0 L2,0 L4,8 L-6,17 L-14,24 L-18,27 L-20,27 L-21,18 L-9,7 Z " fill="#E2E2E2" transform="translate(582,551)"/>
<path d="M0,0 L2,2 L3,10 L-1,12 L-2,15 L-16,26 L-18,25 L-20,20 L-19,16 L-5,4 Z " fill="#E8E8E8" transform="translate(669,450)"/>
<path d="M0,0 L2,0 L6,6 L-4,14 L-11,21 L-18,26 L-23,24 L-22,20 L-7,6 Z " fill="#F9F9F9" transform="translate(535,602)"/>
<path d="M0,0 L5,2 L7,6 L-8,17 L-15,21 L-21,16 L-16,11 L-4,3 Z " fill="#F1F1F1" transform="translate(485,383)"/>
<path d="M0,0 L7,0 L11,3 L-8,16 L-14,20 L-17,17 L-22,16 L-18,12 L-7,5 Z " fill="#E8E9E9" transform="translate(427,414)"/>
<path d="M0,0 L7,4 L7,6 L-13,20 L-20,16 L-18,12 L-6,4 Z " fill="#F0F1F0" transform="translate(531,351)"/>
<path d="M0,0 L1,2 L0,7 L9,16 L9,18 L3,22 L-1,21 L-14,9 L-10,7 Z " fill="#ECE19E" transform="translate(366,483)"/>
<path d="M0,0 L2,1 L3,8 L-5,15 L-17,25 L-19,23 L-20,17 L-10,8 Z " fill="#E3E3E3" transform="translate(629,511)"/>
<path d="M0,0 L5,0 L8,2 L7,5 L-9,16 L-14,19 L-21,15 L-16,11 L-2,1 Z " fill="#EAEAEA" transform="translate(477,380)"/>
<path d="M0,0 L4,2 L3,6 L-2,11 L-7,16 L-9,16 L-9,18 L-16,23 L-18,25 L-22,20 L-17,15 L-3,2 Z " fill="#F9F9F9" transform="translate(585,559)"/>
<path d="M0,0 L3,4 L2,9 L-13,22 L-18,25 L-19,17 L-6,5 Z " fill="#E1E1E1" transform="translate(673,472)"/>
<path d="M0,0 L7,0 L10,1 L10,3 L-9,16 L-13,16 L-19,14 L-15,10 L-3,2 Z " fill="#EAEAEA" transform="translate(521,349)"/>
<path d="M0,0 L4,3 L3,7 L-11,19 L-15,22 L-20,21 L-21,18 L-11,9 L-3,2 Z " fill="#F8F8F8" transform="translate(632,518)"/>
<path d="M0,0 L1,0 L1,8 L-12,20 L-20,27 L-23,28 L-23,21 L-10,9 L-2,2 Z " fill="#B6B7B4" transform="translate(554,620)"/>
<path d="M0,0 L4,2 L3,7 L-5,14 L-8,15 L-8,17 L-14,22 L-18,20 L-19,16 L-5,4 Z " fill="#F8F8F8" transform="translate(675,480)"/>
<path d="M0,0 L1,2 L-1,9 L-6,14 L-8,14 L-10,18 L-16,23 L-18,23 L-20,27 L-22,27 L-22,20 L-9,8 L-1,1 Z " fill="#B7B8B5" transform="translate(604,575)"/>
<path d="M0,0 L4,0 L4,3 L-9,13 L-12,15 L-6,17 L-7,20 L-19,20 L-21,19 L-21,16 L-19,16 L-19,14 L-8,6 L-6,6 L-6,4 Z " fill="#E6E9E6" transform="translate(393,566)"/>
<path d="M0,0 L1,0 L1,6 L-5,13 L-13,20 L-20,26 L-22,25 L-20,18 L-8,7 Z " fill="#B5B7B4" transform="translate(650,534)"/>
<path d="M0,0 L10,2 L16,5 L21,12 L21,17 L18,13 L14,9 L9,7 L-6,7 L-10,8 L-9,3 Z " fill="#6E6E6E" transform="translate(419,498)"/>
<path d="M0,0 L2,3 L6,16 L9,20 L8,22 L-9,10 L-10,8 Z " fill="#ECE19F" transform="translate(642,482)"/>
<path d="M0,0 L2,0 L7,15 L11,22 L7,20 L-6,10 L-8,7 Z " fill="#EAE09E" transform="translate(596,521)"/>
<path d="M0,0 L1,3 L-2,10 L-5,11 L-7,15 L-15,22 L-20,26 L-21,24 L-20,18 L-10,10 L-1,2 Z " fill="#B4B6B2" transform="translate(694,494)"/>
<path d="M0,0 L2,2 L1,6 L-11,17 L-21,25 L-25,23 L-20,18 L-7,7 L-1,2 Z " fill="#F6F6F6" transform="translate(522,568)"/>
<path d="M0,0 L2,1 L5,10 L9,18 L11,22 L7,20 L-6,9 L-8,7 Z " fill="#EAE09D" transform="translate(548,562)"/>
<path d="M0,0 L3,4 L11,20 L11,23 L-3,10 L-6,8 L-4,4 Z " fill="#E9DF9E" transform="translate(496,606)"/>
<path d="M0,0 L2,4 L-5,11 L-16,20 L-21,24 L-23,21 L-14,12 L-3,3 Z " fill="#F5F5F5" transform="translate(574,525)"/>
<path d="M0,0 L2,1 L1,5 L-9,14 L-18,21 L-22,19 L-17,14 L-4,3 Z " fill="#F6F6F6" transform="translate(622,485)"/>
<path d="M0,0 L7,1 L5,3 L0,5 L-17,17 L-19,17 L-19,19 L-23,18 L-22,15 L-14,10 L-12,8 L-1,1 Z " fill="#CBCDCB" transform="translate(376,449)"/>
<path d="M0,0 L7,0 L5,2 L0,4 L-5,9 L-13,15 L-19,14 L-15,10 L-3,2 Z " fill="#D0D1D0" transform="translate(521,349)"/>
<path d="M0,0 L3,2 L-7,11 L-18,20 L-21,20 L-20,16 L-6,5 Z " fill="#4D4E4D" transform="translate(533,538)"/>
<path d="M0,0 L2,2 L1,6 L-13,18 L-17,21 L-19,21 L-18,17 L-6,6 L-1,2 Z " fill="#F5F5F5" transform="translate(667,446)"/>
<path d="M0,0 L7,0 L5,2 L2,3 L0,6 L-5,8 L-17,16 L-22,16 L-18,12 L-7,5 Z " fill="#CCCDCC" transform="translate(427,414)"/>
<path d="M0,0 L3,1 L2,4 L-8,12 L-15,18 L-18,18 L-17,14 L-6,5 Z " fill="#4D4F4E" transform="translate(582,497)"/>
<path d="M0,0 L5,0 L0,4 L-17,16 L-21,15 L-16,11 L-2,1 Z " fill="#CFD0CF" transform="translate(477,380)"/>
<path d="M0,0 L3,1 L3,3 L-7,11 L-13,16 L-16,15 L-11,9 Z " fill="#4D4E4D" transform="translate(628,459)"/>
</svg>
