<?xml version="1.0" encoding="UTF-8"?>
<!-- Generated by @neplex/vectorizer (Using visioncortex VTracer) -->
<svg version="1.1" xmlns="http://www.w3.org/2000/svg" width="1024" height="1024">
<path d="M0,0 L5,2 L49,31 L76,49 L120,78 L163,107 L182,119 L225,148 L269,177 L284,187 L328,216 L371,245 L389,257 L379,282 L368,308 L363,313 L348,326 L334,338 L321,349 L307,361 L293,373 L280,384 L266,396 L252,408 L239,419 L225,431 L211,443 L200,452 L190,461 L179,470 L164,483 L150,495 L136,507 L125,516 L115,525 L104,534 L89,547 L75,559 L61,571 L48,582 L34,594 L20,606 L9,615 L-1,624 L-12,633 L-27,646 L-41,658 L-53,668 L-58,663 L-71,648 L-84,633 L-96,619 L-109,604 L-121,590 L-134,575 L-146,561 L-158,547 L-171,532 L-183,518 L-196,503 L-208,489 L-221,474 L-233,460 L-246,445 L-258,431 L-271,416 L-283,402 L-295,388 L-308,373 L-320,359 L-333,344 L-345,330 L-358,315 L-370,301 L-383,286 L-395,272 L-399,264 L-416,220 L-416,217 L-377,197 L-358,187 L-331,173 L-312,163 L-285,149 L-266,139 L-239,125 L-220,115 L-193,101 L-170,89 L-147,77 L-124,65 L-101,53 L-78,41 L-55,29 L-32,17 L-9,5 Z " fill="#407A46" transform="translate(532,248)"/>
<path d="M0,0 L7,1 L25,14 L26,16 L17,18 L11,22 L16,27 L22,30 L27,35 L32,39 L38,38 L36,33 L30,20 L28,16 L32,13 L37,13 L50,23 L55,28 L47,33 L54,35 L71,48 L76,47 L80,45 L97,57 L102,62 L88,71 L84,70 L81,65 L78,56 L75,52 L68,52 L59,57 L60,60 L67,64 L75,71 L82,76 L87,75 L96,70 L101,70 L120,84 L127,80 L131,82 L145,92 L151,97 L146,102 L138,107 L133,106 L130,98 L128,92 L127,89 L117,91 L110,95 L112,99 L118,102 L120,106 L124,108 L135,116 L140,114 L147,110 L154,109 L171,121 L176,119 L181,118 L197,130 L204,135 L203,147 L183,161 L166,173 L161,172 L153,166 L155,162 L163,153 L162,148 L153,131 L146,135 L127,148 L108,161 L86,176 L67,189 L48,202 L36,210 L35,240 L33,243 L30,240 L25,242 L18,248 L14,255 L15,259 L27,270 L37,279 L41,279 L55,269 L73,256 L91,243 L109,230 L127,217 L145,204 L163,191 L167,188 L165,184 L149,172 L149,168 L153,168 L169,180 L176,186 L175,190 L164,198 L146,211 L127,225 L109,238 L90,252 L72,265 L54,278 L42,287 L36,287 L21,273 L10,264 L13,269 L20,275 L19,278 L0,291 L-10,299 L-26,310 L-30,309 L-40,300 L-52,288 L-54,279 L-53,276 L-38,266 L-33,262 L-27,248 L-23,233 L-36,221 L-41,217 L-39,221 L-31,229 L-36,233 L-55,246 L-74,259 L-77,261 L-81,260 L-102,239 L-103,229 L-88,219 L-82,214 L-79,207 L-75,190 L-74,187 L-84,177 L-90,172 L-89,166 L-86,167 L-86,169 L-82,171 L-72,180 L-70,181 L-68,176 L-62,169 L-56,165 L-61,160 L-73,149 L-70,136 L-85,145 L-93,153 L-97,161 L-101,174 L-103,182 L-107,192 L-115,198 L-126,205 L-127,214 L-134,208 L-147,196 L-149,190 L-149,184 L-131,173 L-128,169 L-125,159 L-122,143 L-130,135 L-135,131 L-134,125 L-130,127 L-120,136 L-120,138 L-118,138 L-116,133 L-110,126 L-105,123 L-107,119 L-119,108 L-117,99 L-116,95 L-130,103 L-139,111 L-145,125 L-148,141 L-152,150 L-157,154 L-171,162 L-171,171 L-179,165 L-191,153 L-192,143 L-183,137 L-173,131 L-171,128 L-168,116 L-166,104 L-162,94 L-155,86 L-140,77 L-136,73 L-131,65 L-107,52 L-89,42 L-83,42 L-60,29 L-58,29 L-57,24 L-30,9 L-17,2 L-13,5 L-8,3 Z " fill="#949494" transform="translate(505,336)"/>
<path d="M0,0 L2,1 L1,4 L10,15 L21,27 L30,38 L43,52 L50,60 L62,74 L73,86 L80,94 L92,108 L103,120 L110,128 L122,142 L133,154 L142,165 L155,179 L162,187 L174,201 L185,213 L192,221 L204,235 L215,247 L222,255 L234,269 L245,281 L252,289 L264,303 L275,315 L282,323 L294,337 L305,349 L312,357 L324,371 L335,383 L342,391 L354,405 L359,409 L369,401 L382,390 L393,381 L406,370 L417,361 L430,350 L444,339 L459,326 L470,317 L483,306 L494,297 L507,286 L521,275 L536,262 L547,253 L560,242 L571,233 L584,222 L598,211 L613,198 L624,189 L637,178 L648,169 L661,158 L675,147 L690,134 L701,125 L714,114 L725,105 L738,94 L752,83 L767,70 L778,61 L791,50 L801,42 L802,44 L783,90 L781,94 L770,103 L755,116 L741,128 L730,137 L720,146 L709,155 L694,168 L680,180 L666,192 L653,203 L639,215 L625,227 L614,236 L604,245 L593,254 L578,267 L564,279 L550,291 L539,300 L529,309 L518,318 L503,331 L489,343 L475,355 L462,366 L448,378 L434,390 L423,399 L413,408 L402,417 L387,430 L373,442 L361,452 L356,447 L343,432 L330,417 L318,403 L305,388 L293,374 L280,359 L268,345 L256,331 L243,316 L231,302 L218,287 L206,273 L193,258 L181,244 L168,229 L156,215 L143,200 L131,186 L119,172 L106,157 L94,143 L81,128 L69,114 L56,99 L44,85 L31,70 L19,56 L15,48 L-2,4 L-2,1 Z " fill="#10291B" transform="translate(118,464)"/>
<path d="M0,0 L5,5 L16,15 L27,24 L38,34 L49,43 L60,53 L71,62 L82,72 L93,81 L103,90 L114,99 L125,109 L136,118 L147,128 L158,137 L166,144 L166,175 L164,178 L161,175 L156,177 L149,183 L145,190 L146,194 L158,205 L168,214 L172,214 L186,204 L204,191 L222,178 L240,165 L258,152 L276,139 L294,126 L298,123 L296,119 L280,107 L280,103 L284,103 L300,115 L307,121 L306,125 L295,133 L277,146 L258,160 L240,173 L221,187 L203,200 L185,213 L173,222 L167,222 L152,208 L141,199 L144,204 L151,210 L150,213 L131,226 L121,234 L105,245 L101,244 L91,235 L79,223 L77,214 L78,211 L93,201 L98,197 L104,183 L108,168 L95,156 L90,152 L92,156 L100,164 L95,168 L76,181 L57,194 L54,196 L50,195 L29,174 L28,164 L43,154 L49,149 L52,142 L56,125 L57,122 L47,112 L41,107 L42,101 L45,102 L45,104 L49,106 L59,115 L61,116 L63,111 L69,104 L75,100 L70,95 L58,84 L61,71 L46,80 L38,88 L34,96 L30,109 L28,117 L24,127 L16,133 L5,140 L4,149 L-3,143 L-16,131 L-18,125 L-18,119 L0,108 L3,104 L6,94 L9,78 L1,70 L-4,66 L-3,60 L1,62 L11,71 L11,73 L13,73 L15,68 L21,61 L26,58 L24,54 L12,43 L14,34 L15,30 L1,38 L-8,46 L-14,60 L-17,76 L-21,85 L-26,89 L-40,97 L-40,106 L-48,100 L-60,88 L-61,78 L-52,72 L-42,66 L-40,63 L-37,51 L-35,39 L-31,29 L-24,21 L-9,12 L-5,8 Z " fill="#868686" transform="translate(374,401)"/>
<path d="M0,0 L2,1 L1,4 L10,15 L21,27 L30,38 L43,52 L50,60 L62,74 L73,86 L80,94 L92,108 L103,120 L110,128 L122,142 L133,154 L142,165 L155,179 L162,187 L174,201 L185,213 L192,221 L204,235 L215,247 L222,255 L234,269 L245,281 L252,289 L264,303 L275,315 L282,323 L294,337 L305,349 L312,357 L324,371 L335,383 L342,391 L354,405 L359,410 L360,426 L360,449 L356,447 L343,432 L330,417 L318,403 L305,388 L293,374 L280,359 L268,345 L256,331 L243,316 L231,302 L218,287 L206,273 L193,258 L181,244 L168,229 L156,215 L143,200 L131,186 L119,172 L106,157 L94,143 L81,128 L69,114 L56,99 L44,85 L31,70 L19,56 L15,48 L-2,4 L-2,1 Z " fill="#254C36" transform="translate(118,464)"/>
<path d="M0,0 L3,3 L12,19 L11,24 L-1,37 L-3,41 L15,55 L15,59 L-3,72 L-22,86 L-36,96 L-54,109 L-72,122 L-90,135 L-108,148 L-112,151 L-116,149 L-133,133 L-139,128 L-138,124 L-133,116 L-124,109 L-120,111 L-119,112 L-118,110 L-117,80 L-94,64 L-70,48 L-56,38 L-44,30 L-25,17 L-6,4 Z " fill="#505050" transform="translate(657,466)"/>
<path d="M0,0 L9,6 L21,16 L19,20 L2,32 L-17,46 L-31,56 L-49,69 L-67,82 L-85,95 L-103,108 L-107,111 L-111,109 L-128,93 L-134,88 L-133,84 L-128,76 L-122,72 L-114,79 L-110,78 L-90,64 L-73,52 L-56,40 L-39,28 L-19,14 L-2,2 Z " fill="#417B47" transform="translate(652,506)"/>
<path d="M0,0 L4,1 L14,10 L25,19 L27,23 L13,33 L4,41 L-5,58 L-9,72 L-14,82 L-22,89 L-33,97 L-38,96 L-45,89 L-53,82 L-59,76 L-58,72 L-41,60 L-36,50 L-30,31 L-35,26 L-44,17 L-48,14 L-47,7 L-39,13 L-28,23 L-26,23 L-18,13 L-6,4 Z " fill="#D8D9D8" transform="translate(512,539)"/>
<path d="M0,0 L6,4 L18,15 L24,20 L23,23 L8,33 L1,40 L-5,52 L-8,61 L-12,75 L-16,81 L-25,88 L-34,94 L-38,93 L-52,79 L-57,75 L-57,73 L-59,72 L-44,62 L-38,57 L-35,50 L-31,33 L-30,30 L-40,20 L-46,15 L-45,9 L-42,10 L-42,12 L-38,14 L-28,23 L-26,24 L-24,19 L-18,12 L-3,2 Z " fill="#D8D9D8" transform="translate(461,493)"/>
<path d="M0,0 L8,6 L19,16 L22,18 L20,22 L6,31 L-1,38 L-5,46 L-9,59 L-11,67 L-15,77 L-23,83 L-34,90 L-35,99 L-42,93 L-55,81 L-57,75 L-57,69 L-39,58 L-36,54 L-33,44 L-30,28 L-38,20 L-43,16 L-42,10 L-38,12 L-28,21 L-28,23 L-26,23 L-24,18 L-18,11 L-2,1 Z " fill="#F2F2F2" transform="translate(413,451)"/>
<path d="M0,0 L5,2 L18,14 L22,18 L13,24 L4,30 L-2,37 L-7,49 L-10,65 L-14,74 L-19,78 L-33,86 L-33,95 L-41,89 L-53,77 L-54,67 L-45,61 L-35,55 L-33,52 L-30,40 L-28,28 L-24,18 L-17,10 L-2,1 Z " fill="#F2F2F2" transform="translate(367,412)"/>
<path d="M0,0 L2,0 L1,9 L0,13 L12,24 L17,29 L8,36 L2,45 L-2,43 L-12,34 L-17,30 L-17,39 L-7,49 L-12,53 L-32,66 L-49,77 L-52,79 L-55,79 L-55,69 L-45,62 L-36,56 L-31,44 L-27,28 L-23,19 L-16,11 L-7,4 Z " fill="#6E6F6D" transform="translate(433,472)"/>
<path d="M0,0 L2,0 L1,6 L0,13 L14,26 L13,29 L5,35 L0,43 L-2,43 L-7,38 L-14,31 L-16,30 L-17,38 L-10,45 L-6,48 L-7,51 L-29,64 L-45,74 L-50,77 L-53,77 L-54,67 L-36,56 L-33,51 L-30,42 L-28,30 L-22,16 L-15,9 L-2,1 Z " fill="#6E6E6D" transform="translate(387,431)"/>
<path d="M0,0 L5,2 L21,15 L26,19 L25,23 L14,31 L-4,44 L-23,58 L-41,71 L-60,85 L-78,98 L-96,111 L-108,120 L-114,120 L-129,106 L-139,97 L-138,91 L-134,93 L-124,102 L-112,113 L-107,111 L-91,99 L-77,89 L-59,76 L-41,63 L-23,50 L-5,37 L13,24 L17,21 L15,17 L-1,5 L-1,1 Z " fill="#E9ECE9" transform="translate(655,503)"/>
<path d="M0,0 L2,2 L2,14 L0,17 L-3,14 L-8,16 L-15,22 L-20,32 L-22,41 L-13,49 L-14,52 L-33,65 L-43,73 L-59,84 L-63,83 L-73,74 L-85,62 L-87,53 L-86,50 L-82,55 L-73,64 L-65,71 L-63,73 L-58,72 L-43,61 L-40,58 L-34,43 L-31,33 L-23,18 L-16,11 Z " fill="#6F706E" transform="translate(538,562)"/>
<path d="M0,0 L1,3 L-2,12 L-11,19 L-15,23 L-20,37 L-19,41 L-10,50 L-15,54 L-34,67 L-53,80 L-56,82 L-60,81 L-81,60 L-82,51 L-80,51 L-75,56 L-60,71 L-56,70 L-41,60 L-37,55 L-33,44 L-30,33 L-25,21 L-16,11 L-5,3 Z " fill="#6E6F6D" transform="translate(484,515)"/>
<path d="M0,0 L4,1 L14,10 L25,19 L27,23 L13,33 L4,41 L1,46 L-3,44 L-19,29 L-25,24 L-24,20 L-16,11 Z " fill="#F8F8F8" transform="translate(512,539)"/>
<path d="M0,0 L5,0 L18,10 L23,15 L15,20 L22,22 L39,35 L44,34 L48,32 L65,44 L70,49 L56,58 L52,57 L49,52 L46,43 L43,39 L36,39 L24,45 L3,29 L4,26 L6,25 L4,20 L-2,7 L-4,3 Z " fill="#E6E6E6" transform="translate(537,349)"/>
<path d="M0,0 L6,4 L18,15 L24,20 L23,23 L8,33 L1,40 L-3,44 L-11,36 L-19,29 L-26,23 L-23,18 L-18,12 L-3,2 Z " fill="#F9F9F9" transform="translate(461,493)"/>
<path d="M0,0 L5,1 L8,7 L11,17 L17,16 L26,9 L28,9 L27,19 L7,33 L-10,45 L-15,44 L-23,38 L-21,34 L-13,25 L-14,20 L-18,11 L-2,1 Z " fill="#70706F" transform="translate(681,464)"/>
<path d="M0,0 L8,6 L19,16 L22,18 L20,22 L6,31 L-1,38 L-4,41 L-14,32 L-25,22 L-24,18 L-18,11 L-2,1 Z " fill="#F9F9F9" transform="translate(413,451)"/>
<path d="M0,0 L5,1 L18,11 L22,12 L26,9 L31,10 L49,23 L53,26 L53,28 L40,37 L35,36 L30,21 L25,20 L13,27 L9,30 L6,30 L1,21 L-15,9 L-10,4 L-4,1 Z " fill="#EEEFEE" transform="translate(656,445)"/>
<path d="M0,0 L4,1 L13,10 L21,17 L25,21 L24,25 L17,31 L6,39 L1,38 L-6,31 L-14,24 L-20,18 L-19,14 L-2,2 Z " fill="#F2F2F2" transform="translate(473,597)"/>
<path d="M0,0 L2,1 L-7,11 L-15,19 L-31,30 L-51,44 L-68,56 L-85,68 L-102,80 L-119,92 L-123,95 L-127,94 L-134,88 L-134,86 L-129,84 L-126,87 L-121,85 L-104,73 L-84,59 L-64,45 L-44,31 L-27,19 L-7,5 Z " fill="#404140" transform="translate(664,491)"/>
<path d="M0,0 L5,2 L18,14 L22,18 L13,24 L4,30 L-3,38 L-7,36 L-23,21 L-21,16 L-14,8 Z " fill="#F9F9F9" transform="translate(367,412)"/>
<path d="M0,0 L7,6 L23,21 L21,25 L12,32 L3,38 L-1,37 L-15,23 L-20,19 L-20,17 L-22,16 L-7,6 Z " fill="#F2F2F2" transform="translate(424,549)"/>
<path d="M0,0 L5,0 L24,14 L31,10 L35,12 L49,22 L55,27 L50,32 L42,37 L37,36 L34,28 L32,22 L31,19 L21,21 L11,26 L-9,11 L-12,9 L-11,6 Z " fill="#EFF0EF" transform="translate(601,406)"/>
<path d="M0,0 L4,2 L17,14 L21,17 L19,21 L12,27 L6,35 L2,33 L-8,24 L-14,19 L-13,12 L-9,6 Z " fill="#427B48" transform="translate(480,528)"/>
<path d="M0,0 Z M-2,1 L0,2 L-5,6 L-3,2 Z M-6,6 Z M-7,7 L-7,10 L-5,14 L10,28 L12,30 L8,40 L6,52 L4,53 L-4,46 L-11,39 L-16,37 L-13,19 L-9,9 Z " fill="#D7D8D8" transform="translate(352,421)"/>
<path d="M0,0 L5,1 L16,11 L21,16 L12,23 L6,32 L2,30 L-8,21 L-12,17 L-11,11 L-7,5 Z " fill="#427B48" transform="translate(429,485)"/>
<path d="M0,0 L8,6 L19,16 L23,17 L36,29 L44,36 L47,39 L45,45 L43,48 L37,46 L22,32 L18,27 L16,22 L4,11 L-1,7 Z " fill="#E8E9E8" transform="translate(465,546)"/>
<path d="M0,0 L4,1 L14,10 L25,19 L27,23 L16,31 L12,29 L1,19 L-7,12 L-12,8 Z " fill="#F2F2F2" transform="translate(512,539)"/>
<path d="M0,0 L8,0 L11,4 L14,15 L15,17 L21,16 L32,8 L33,12 L32,21 L24,24 L18,28 L13,26 L1,17 L-2,13 L-8,10 L-10,6 Z " fill="#6E6E6D" transform="translate(624,425)"/>
<path d="M0,0 L4,1 L17,13 L16,16 L8,22 L3,30 L1,30 L-4,25 L-13,16 L-11,9 L-6,3 Z " fill="#427B48" transform="translate(384,444)"/>
<path d="M0,0 L6,4 L18,15 L24,20 L23,23 L12,30 L5,24 L-11,9 L-11,7 Z " fill="#F2F2F2" transform="translate(461,493)"/>
<path d="M0,0 L3,1 L3,3 L7,5 L17,14 L21,15 L31,24 L41,33 L43,36 L39,44 L31,40 L22,31 L16,24 L13,19 L5,11 L-1,6 Z " fill="#E8E9E8" transform="translate(416,502)"/>
<path d="M0,0 L7,0 L12,6 L15,15 L17,19 L21,18 L33,11 L34,11 L34,20 L28,20 L17,26 L12,25 L1,16 L1,14 L-5,12 L-10,8 L-9,5 Z " fill="#6E6E6E" transform="translate(573,387)"/>
<path d="M0,0 L8,6 L19,16 L22,18 L20,22 L9,28 L3,21 L-5,14 L-12,8 L-7,4 Z " fill="#F2F2F2" transform="translate(413,451)"/>
<path d="M0,0 L4,2 L14,11 L14,13 L16,13 L17,11 L24,18 L32,25 L38,30 L36,39 L33,39 L28,37 L19,28 L13,23 L11,17 L4,10 L-1,6 Z " fill="#E8E9E8" transform="translate(371,461)"/>
<path d="M0,0 L7,1 L25,14 L26,16 L17,18 L11,22 L7,21 L-12,7 L-8,3 Z " fill="#F0F0F0" transform="translate(505,336)"/>
<path d="M0,0 L5,2 L18,14 L22,18 L13,24 L9,25 L-4,13 L-11,7 L-6,3 Z " fill="#F1F1F1" transform="translate(367,412)"/>
<path d="M0,0 L4,5 L14,14 L17,17 L22,19 L23,22 L20,35 L16,33 L6,24 L-3,16 Z " fill="#D7D8D7" transform="translate(383,481)"/>
<path d="M0,0 L9,6 L16,11 L24,10 L20,14 L3,26 L-2,25 L-10,19 L-8,15 L0,6 Z " fill="#EEE29F" transform="translate(668,483)"/>
<path d="M0,0 L5,5 L13,21 L12,24 L6,25 L-3,18 L-7,14 L-14,10 L-17,7 L-9,2 Z " fill="#6D6D6D" transform="translate(531,351)"/>
<path d="M0,0 L7,4 L23,16 L20,19 L9,26 L5,25 L2,20 L-1,11 L-6,4 Z " fill="#EFEFEF" transform="translate(584,381)"/>
<path d="M0,0 L5,0 L18,10 L23,15 L12,22 L6,23 L0,11 L-4,3 Z " fill="#EFF0EF" transform="translate(537,349)"/>
<path d="M0,0 L4,1 L20,16 L26,21 L20,28 L15,25 L-1,10 L-5,7 L-3,3 Z " fill="#FBFBFB" transform="translate(495,553)"/>
<path d="M0,0 L6,1 L18,10 L28,17 L28,20 L19,26 L16,26 L11,17 L-5,5 Z " fill="#F1F1F0" transform="translate(646,449)"/>
<path d="M0,0 L4,2 L12,9 L25,21 L24,28 L21,32 L14,24 L1,12 L-4,8 Z " fill="#E1E2E1" transform="translate(477,588)"/>
<path d="M0,0 Z M-2,1 L0,2 L-5,6 L-3,2 Z M-6,6 Z M-7,7 L-7,10 L-5,14 L10,28 L12,30 L8,39 L4,37 L-8,26 L-12,21 L-12,16 L-8,8 Z " fill="#E7E8E7" transform="translate(352,421)"/>
<path d="M0,0 L5,1 L18,11 L28,18 L25,20 L18,23 L18,21 L14,19 L1,10 L-8,4 L-7,2 Z " fill="#E9E9E8" transform="translate(656,445)"/>
<path d="M0,0 L7,6 L22,20 L23,24 L21,30 L17,28 L1,13 L-3,9 Z " fill="#E2E2E2" transform="translate(427,540)"/>
<path d="M0,0 L5,1 L19,11 L26,16 L26,18 L18,22 L-2,7 L-5,5 L-4,2 Z " fill="#F1F1F1" transform="translate(594,410)"/>
<path d="M0,0 L5,0 L24,14 L26,14 L30,19 L19,21 L1,8 L-6,4 L-2,1 Z " fill="#E8E8E8" transform="translate(601,406)"/>
<path d="M0,0 L6,4 L16,14 L22,19 L19,28 L12,22 L2,13 L-3,8 Z " fill="#E2E2E2" transform="translate(380,497)"/>
<path d="M0,0 L4,1 L13,10 L21,17 L25,21 L24,25 L22,27 L18,26 L12,19 L4,12 L-3,5 L-1,1 Z " fill="#F9F9F9" transform="translate(473,597)"/>
<path d="M0,0 L4,5 L13,14 L21,21 L25,24 L25,33 L27,34 L23,33 L13,24 L1,12 L-1,3 Z " fill="#B4B6B3" transform="translate(452,612)"/>
<path d="M0,0 L4,1 L22,14 L23,18 L16,21 L-5,5 L-4,2 Z " fill="#F1F1F1" transform="translate(545,373)"/>
<path d="M0,0 L7,6 L23,21 L21,25 L17,26 L5,15 L-4,6 L-2,2 Z " fill="#F8F8F8" transform="translate(424,549)"/>
<path d="M0,0 L6,4 L17,15 L20,17 L19,22 L17,26 L10,20 L-3,8 L-1,1 Z " fill="#E1E2E1" transform="translate(337,457)"/>
<path d="M0,0 L2,0 L7,5 L23,21 L24,30 L20,28 L1,9 Z " fill="#B6B8B6" transform="translate(402,566)"/>
<path d="M0,0 L7,1 L25,14 L26,16 L16,18 L3,8 L-3,4 L-6,2 Z " fill="#E9E9E9" transform="translate(505,336)"/>
<path d="M0,0 L4,2 L12,10 L20,17 L22,21 L19,24 L15,23 L-1,7 L-4,4 Z " fill="#F8F8F8" transform="translate(377,506)"/>
<path d="M0,0 L7,6 L12,10 L11,13 L-11,26 L-13,25 L-6,17 L-1,4 Z " fill="#ECE19E" transform="translate(369,469)"/>
<path d="M0,0 L4,2 L12,10 L7,14 L-12,27 L-15,27 L-7,18 L-4,13 Z " fill="#EBE09D" transform="translate(462,555)"/>
<path d="M0,0 L4,2 L12,10 L7,14 L-10,25 L-12,24 L-6,16 Z " fill="#ECE19E" transform="translate(414,511)"/>
<path d="M0,0 L4,2 L11,8 L10,11 L-9,24 L-14,28 L-16,27 L-9,20 L-2,7 Z " fill="#EADF9D" transform="translate(514,603)"/>
<path d="M0,0 L7,6 L15,13 L20,18 L18,22 L15,23 L7,16 L-4,5 Z " fill="#F8F8F8" transform="translate(334,465)"/>
<path d="M0,0 L5,5 L20,20 L22,21 L22,30 L15,24 L2,12 L0,6 Z " fill="#B5B7B4" transform="translate(356,520)"/>
<path d="M0,0 L7,6 L15,13 L20,18 L21,27 L13,21 L1,9 Z " fill="#B3B6B2" transform="translate(313,480)"/>
<path d="M0,0 Z M-2,1 L0,2 L-7,8 L-5,4 Z M-8,8 Z M-9,9 L-2,15 L14,30 L17,33 L15,36 L11,34 L-5,19 L-11,14 L-10,10 Z " fill="#F3F4F3" transform="translate(498,549)"/>
<path d="M0,0 L4,2 L17,14 L21,17 L19,21 L14,19 L7,12 L-1,5 L-3,2 Z " fill="#4C4D4C" transform="translate(480,528)"/>
<path d="M0,0 L8,6 L24,21 L22,25 L15,19 L3,8 L-2,3 Z " fill="#F5F5F5" transform="translate(437,512)"/>
<path d="M0,0 L5,3 L21,18 L23,20 L20,23 L10,14 L-1,4 Z " fill="#F5F5F5" transform="translate(389,469)"/>
<path d="M0,0 L5,1 L16,11 L21,16 L16,18 L3,6 L-1,3 Z " fill="#4C4D4C" transform="translate(429,485)"/>
<path d="M0,0 L4,2 L12,9 L20,16 L19,20 L15,18 L-1,3 Z " fill="#F6F6F6" transform="translate(345,430)"/>
<path d="M0,0 L4,1 L17,13 L16,16 L12,15 L4,8 L-2,3 L-2,1 Z " fill="#4D4E4D" transform="translate(384,444)"/>
<path d="M0,0 L5,1 L18,11 L28,18 L24,20 L5,6 L-1,2 Z " fill="#CECFCE" transform="translate(656,445)"/>
<path d="M0,0 L5,0 L24,14 L26,14 L30,19 L24,19 L14,11 L0,1 Z " fill="#C9CAC9" transform="translate(601,406)"/>
<path d="M0,0 L9,2 L26,15 L29,18 L23,17 L21,16 L21,14 L16,12 L4,3 L-1,2 Z " fill="#CBCCCB" transform="translate(550,369)"/>
<path d="M0,0 L6,2 L19,12 L23,16 L17,17 L15,13 L1,3 Z " fill="#CDCECD" transform="translate(508,336)"/>
</svg>
